<?xml version="1.0" encoding="UTF-8"?>
<svg version="1.1" xmlns="http://www.w3.org/2000/svg" width="1327" height="476">
<path d="M0 0 C3.85027206 1.57964187 6.24625535 4.03144395 9.140625 6.98046875 C9.62650085 7.47154617 10.11237671 7.9626236 10.61297607 8.46858215 C12.16350303 10.03685648 13.70719156 11.61163482 15.25 13.1875 C17.27256097 15.24694561 19.2983596 17.30312309 21.328125 19.35546875 C21.82265671 19.85554443 22.31718842 20.35562012 22.82670593 20.87084961 C26.09320339 24.15054855 29.47441873 27.22072132 32.99365234 30.22290039 C37.24721002 33.9904407 41.19062625 38.08937953 45.1875 42.125 C46.06341797 43.00542969 46.93933594 43.88585938 47.84179688 44.79296875 C54.49303555 51.47950589 54.49303555 51.47950589 57.48828125 54.5546875 C59.83137451 56.83583273 62.23704902 59.00613518 64.6796875 61.1796875 C70.03127756 65.968161 75.08760999 71.00975234 80.125 76.125 C86.83963108 82.97591042 86.83963108 82.97591042 93.9296875 89.4296875 C99.75756144 94.42813714 105.05016355 99.99377567 110.43652344 105.45703125 C117.01979571 112.15581399 117.01979571 112.15581399 123.96875 118.46875 C129.99159851 123.62067744 135.44689427 129.39182133 141.00927734 135.02978516 C147.79456734 141.94430413 147.79456734 141.94430413 154.95703125 148.4609375 C160.67862241 153.35005696 165.89103741 158.7858305 171.1875 164.125 C172.26473707 165.20726709 173.34220961 166.28929986 174.41992188 167.37109375 C176.40014254 169.35940254 178.37872012 171.34929366 180.35620117 173.34033203 C182.89918425 175.89857912 185.44807928 178.45067651 188 181 C187.67 181.66 187.34 182.32 187 183 C174.16118292 183.11576292 161.32248964 183.2046492 148.48325729 183.25906086 C142.52169127 183.28517357 136.56048186 183.32060304 130.59912109 183.37719727 C124.84788755 183.43145602 119.09699736 183.46140792 113.34552765 183.47438622 C111.14940229 183.48363703 108.95329608 183.50170151 106.75731659 183.52865028 C103.68512614 183.56485819 100.61436108 183.56994869 97.54199219 183.56762695 C96.17497917 183.59459152 96.17497917 183.59459152 94.78034973 183.62210083 C88.57838084 183.57126227 88.57838084 183.57126227 85.59112549 180.62077332 C85.06605408 179.75591812 84.54098267 178.89106293 84 178 C83.01 177.175 82.02 176.35 81 175.5 C78.19533641 173.16278034 76.22421642 170.86995667 74 168 C72.34652071 166.32024949 70.67721041 164.65605579 69 163 C67.97627184 161.97777941 66.95333821 160.95476269 65.93107605 159.93107605 C65.37728271 159.37728271 64.82348938 158.82348938 64.25291443 158.25291443 C44.16860962 138.16860962 24.08430481 118.08430481 4 98 C0.26728602 101.1592567 -3.4339459 104.30925947 -6.89648438 107.76708984 C-7.57408813 108.44154144 -8.25169189 109.11599304 -8.9498291 109.81088257 C-9.657323 110.5204007 -10.36481689 111.22991882 -11.09375 111.9609375 C-11.84410522 112.710336 -12.59446045 113.4597345 -13.36755371 114.23184204 C-14.94532057 115.80893198 -16.52183965 117.38727112 -18.09716797 118.96679688 C-20.48944853 121.36442494 -22.88700848 123.75667955 -25.28515625 126.1484375 C-26.82584147 127.68978373 -28.36621635 129.23144026 -29.90625 130.7734375 C-30.96749084 131.831642 -30.96749084 131.831642 -32.0501709 132.91122437 C-32.72777466 133.59198029 -33.40537842 134.27273621 -34.10351562 134.97412109 C-34.68862915 135.56003021 -35.27374268 136.14593933 -35.87658691 136.74960327 C-37.7144524 138.69737618 -39.46402107 140.6851978 -41.21192932 142.71292114 C-45.125216 147.20655703 -49.28355571 151.41704633 -53.50561523 155.61914062 C-54.32593735 156.43960876 -55.14625946 157.2600769 -55.99143982 158.10540771 C-58.67812519 160.79140164 -61.36832514 163.47384544 -64.05859375 166.15625 C-65.93210899 168.02789832 -67.80542574 169.89974321 -69.67848206 171.77185059 C-74.08907021 176.17934477 -78.5021986 180.58428614 -82.91627127 184.98829031 C-87.94614333 190.00694079 -92.9731375 195.02846979 -97.99990547 200.05022907 C-108.33009653 210.36999961 -118.66385319 220.68619471 -129 231 C-128.24467484 231.75499786 -127.48934967 232.50999573 -126.71113586 233.28787231 C-124.6788991 235.32085254 -122.64869004 237.35571449 -120.62182617 239.39404297 C-117.21378693 242.81998412 -113.80261522 246.24278823 -110.39038086 249.66455078 C-108.92626003 251.13370184 -107.46303779 252.60374897 -106.00073242 254.07470703 C-103.87139011 256.21628556 -101.73873984 258.35452332 -99.60546875 260.4921875 C-98.96248337 261.14033417 -98.31949799 261.78848083 -97.6570282 262.45626831 C-93.84079268 266.27296581 -89.90187691 269.87839295 -85.81758118 273.40603638 C-83.48807513 275.4489426 -81.2985284 277.60512773 -79.125 279.8125 C-78.28453125 280.66070312 -77.4440625 281.50890625 -76.578125 282.3828125 C-74.859375 284.12760417 -73.140625 285.87239583 -71.421875 287.6171875 C-67.74913132 291.32372943 -64.09575069 294.98673546 -60.125 298.375 C-53.87110711 303.73727362 -48.20155898 309.74397637 -42.41796875 315.60253906 C-37.10517851 320.97794904 -31.79620715 326.27186919 -26.04199219 331.18066406 C-21.02504357 335.65057093 -16.39929477 340.55411973 -11.68359375 345.33691406 C-10.29367409 346.74482315 -8.90079023 348.14980398 -7.5078125 349.5546875 C-6.68941895 350.38468262 -5.87102539 351.21467773 -5.02783203 352.06982422 C-3.14739471 354.0482742 -3.14739471 354.0482742 -1 355 C-0.60361328 354.11054687 -0.60361328 354.11054687 -0.19921875 353.203125 C1.04370425 350.91970946 2.30401646 349.52573277 4.1875 347.75 C6.70388457 345.3691584 9.00838826 342.87176657 11.27734375 340.2578125 C14.87505256 336.11392476 18.60408641 332.11097542 22.375 328.125 C27.26391629 322.9339361 32.11036944 317.71450503 36.859375 312.39453125 C39.41116194 309.54006885 41.98525983 306.70646854 44.5625 303.875 C45.40941406 302.94429688 46.25632812 302.01359375 47.12890625 301.0546875 C47.74636719 300.37664062 48.36382812 299.69859375 49 299 C44.86580386 293.80272485 40.2209553 289.36025327 35.31494141 284.90844727 C30.97909893 280.95438861 26.81165831 276.86115934 22.6875 272.6875 C18.62560321 268.58108777 14.53483858 264.63267002 10.12109375 260.90234375 C6.52723981 257.67912668 3.18344435 254.20267547 -0.2097168 250.77075195 C-3.75408805 247.20155511 -7.38419196 243.81276749 -11.22265625 240.55859375 C-13.76681354 238.32756351 -16.11034248 235.91634284 -18.45703125 233.48046875 C-20.13707372 231.78164495 -20.13707372 231.78164495 -23 230 C-22.67 228.68 -22.34 227.36 -22 226 C60.83 226 143.66 226 229 226 C229 230 229 230 227.72509766 231.76264954 C227.12745605 232.3544249 226.52981445 232.94620026 225.9140625 233.5559082 C225.23915771 234.23373856 224.56425293 234.91156891 223.86889648 235.60993958 C222.75816772 236.6944062 222.75816772 236.6944062 221.625 237.80078125 C220.48816772 238.93268135 220.48816772 238.93268135 219.32836914 240.08744812 C216.8947657 242.50527185 214.44737752 244.90862821 212 247.3125 C210.38065083 248.92035869 208.76215092 250.52907319 207.14453125 252.13867188 C205.57628318 253.69347765 204.00729529 255.24753762 202.4375 256.80078125 C201.71320801 257.51768631 200.98891602 258.23459137 200.24267578 258.97322083 C199.54255371 259.66050766 198.84243164 260.34779449 198.12109375 261.0559082 C197.5170874 261.65007034 196.91308105 262.24423248 196.29077148 262.85639954 C194.31436436 264.70583204 192.2996002 266.47624008 190.25045776 268.24359131 C185.93771612 272.00118336 181.89570367 275.98415067 177.87158203 280.04663086 C177.10309433 280.81818512 176.33460663 281.58973938 175.54283142 282.38467407 C173.88906018 284.04555275 172.2364195 285.70755779 170.58481216 287.3705883 C167.97359273 289.99929266 165.35876258 292.62435545 162.7428894 295.24842834 C155.3112887 302.70441437 147.88544393 310.16611737 140.46386719 317.63208008 C135.91365662 322.20898455 131.35865893 326.7810785 126.80062485 331.35019112 C125.0643167 333.09272409 123.32991041 334.83715421 121.59741592 336.58347893 C119.1867775 339.01321042 116.77015559 341.43683333 114.35205078 343.85913086 C113.27362663 344.9506974 113.27362663 344.9506974 112.17341614 346.0643158 C111.51750992 346.71891785 110.8616037 347.3735199 110.18582153 348.04795837 C109.6154825 348.62143981 109.04514347 349.19492125 108.45752144 349.78578091 C107 351 107 351 105 351 C104.67 351.99 104.34 352.98 104 354 C102.66210937 355.31665039 102.66210937 355.31665039 100.84375 356.78515625 C94.74054889 361.96990134 89.18689284 367.70264884 83.54614258 373.37869263 C81.46222167 375.47551216 79.37507491 377.56907366 77.28710938 379.66186523 C72.85524306 384.10509482 68.4273267 388.55224762 64 393 C58.86490934 398.15878164 53.72816349 403.31589252 48.5871582 408.46878052 C46.54235237 410.52001449 44.50060936 412.57426291 42.45898438 414.62866211 C36.99658822 420.1123843 31.56432086 425.55318542 25.66015625 430.56692505 C22.88855795 432.95941557 20.32453783 435.55152204 17.75 438.15234375 C17.20641846 438.69734024 16.66283691 439.24233673 16.1027832 439.80384827 C14.39945185 441.51269217 12.69966674 443.22501197 11 444.9375 C9.83226626 446.11026009 8.66429926 447.28278798 7.49609375 448.45507812 C4.66136766 451.30071689 1.82981176 454.14947453 -1 457 C-6.07180756 452.75170758 -10.83741455 448.31642618 -15.5 443.625 C-16.12519531 443.00367188 -16.75039062 442.38234375 -17.39453125 441.7421875 C-18.32845703 440.80632812 -18.32845703 440.80632812 -19.28125 439.8515625 C-19.82845703 439.30322754 -20.37566406 438.75489258 -20.93945312 438.18994141 C-22.74629173 436.26964019 -24.46577612 434.3077229 -26.18554688 432.31005859 C-30.17520149 427.72976673 -34.4333685 423.45779834 -38.75 419.1875 C-39.97541504 417.96776489 -39.97541504 417.96776489 -41.22558594 416.72338867 C-43.81462671 414.14646703 -46.40688737 411.57282375 -49 409 C-52.41962719 405.60712847 -55.83582149 402.21085343 -59.25 398.8125 C-60.02311523 398.04768311 -60.79623047 397.28286621 -61.59277344 396.49487305 C-65.00580803 393.09712182 -68.33094955 389.67872418 -71.47265625 386.02734375 C-75.48353575 381.3705281 -79.82145929 377.071687 -84.1875 372.75 C-85.04883545 371.89245117 -85.9101709 371.03490234 -86.79760742 370.15136719 C-89.5293112 367.43179111 -92.26423275 364.715488 -95 362 C-98.60711851 358.41961974 -102.21081802 354.83584819 -105.8125 351.25 C-106.62936279 350.44143555 -107.44622559 349.63287109 -108.2878418 348.79980469 C-111.79755859 345.30499501 -115.23053846 341.79865339 -118.45898438 338.04101562 C-122.67268701 333.14422282 -127.25643658 328.63792713 -131.84375 324.09375 C-133.2619165 322.68137068 -134.68008007 321.26898839 -136.09807587 319.85643768 C-138.56323132 317.40212499 -141.03170509 314.95115467 -143.5 312.5 C-146.44985631 309.57062797 -149.39907839 306.64063715 -152.34436035 303.70666504 C-154.17068429 301.88779387 -155.99925361 300.07117348 -157.83044434 298.25720215 C-162.14910277 293.95557165 -166.28849313 289.58761709 -170.2598877 284.96496582 C-173.51886602 281.28486943 -177.03741274 277.86149374 -180.53125 274.40625 C-181.32599731 273.61528931 -182.12074463 272.82432861 -182.9395752 272.00939941 C-185.45728432 269.50380477 -187.97821446 267.00149142 -190.5 264.5 C-193.82588189 261.2008832 -197.14832336 257.89835626 -200.46875 254.59375 C-201.21999146 253.85080688 -201.97123291 253.10786377 -202.74523926 252.34240723 C-206.85018902 248.25635199 -210.7711008 244.0803609 -214.53102112 239.67370605 C-216.35458458 237.59599803 -218.32430901 235.77952926 -220.4375 234 C-221.11683594 233.4225 -221.79617187 232.845 -222.49609375 232.25 C-222.99238281 231.8375 -223.48867187 231.425 -224 231 C-222.52480504 227.56737194 -220.60013334 225.37863556 -217.9375 222.77734375 C-217.14085937 221.99166016 -216.34421875 221.20597656 -215.5234375 220.39648438 C-214.69070312 219.58501953 -213.85796875 218.77355469 -213 217.9375 C-211.35194238 216.32388321 -209.70601136 214.70809078 -208.0625 213.08984375 C-207.33160156 212.37691162 -206.60070312 211.66397949 -205.84765625 210.92944336 C-203.83135467 208.93644442 -203.83135467 208.93644442 -202 206 C-201.34 206 -200.68 206 -200 206 C-199.61366646 205.12519989 -199.61366646 205.12519989 -199.2195282 204.23272705 C-197.89414842 201.80620565 -196.45160702 200.21724072 -194.48754883 198.27636719 C-193.76952591 197.56172302 -193.05150299 196.84707886 -192.3117218 196.11077881 C-191.14614998 194.96539642 -191.14614998 194.96539642 -189.95703125 193.796875 C-189.1552092 193.00025452 -188.35338715 192.20363403 -187.52726746 191.38287354 C-184.96037582 188.8337925 -182.38692442 186.2914714 -179.8125 183.75 C-177.25675608 181.22200181 -174.7025261 178.69252167 -172.15129089 176.15997314 C-170.5646798 174.58547555 -168.97540406 173.01365686 -167.38301086 171.44500732 C-163.32124042 167.41938796 -159.47000859 163.29903576 -155.73979187 158.96588135 C-152.68600247 155.51524583 -149.40181628 152.29965564 -146.125 149.0625 C-145.39684082 148.33812744 -144.66868164 147.61375488 -143.91845703 146.86743164 C-140.83943049 143.80457576 -137.75441677 140.74777689 -134.66992188 137.69042969 C-132.40284542 135.44155883 -130.13887034 133.18959762 -127.875 130.9375 C-127.18937988 130.26017822 -126.50375977 129.58285645 -125.79736328 128.88500977 C-122.61238914 125.71603464 -119.5338687 122.51214292 -116.60449219 119.10449219 C-112.45531198 114.29637784 -107.96376384 109.85729405 -103.453125 105.390625 C-102.56010681 104.50139343 -101.66708862 103.61216187 -100.74700928 102.69598389 C-97.91709917 99.87820789 -95.0840536 97.06360675 -92.25 94.25 C-88.50218014 90.52907345 -84.75798344 86.80454661 -81.015625 83.078125 C-80.15624329 82.22704163 -79.29686157 81.37595825 -78.41143799 80.49908447 C-77.61340759 79.7043573 -76.8153772 78.90963013 -75.99316406 78.09082031 C-75.29257874 77.3954718 -74.59199341 76.70012329 -73.87017822 75.98370361 C-71.94773458 74.03160121 -71.94773458 74.03160121 -70.37542725 71.74432373 C-69.92153625 71.1686969 -69.46764526 70.59307007 -69 70 C-68.34 70 -67.68 70 -67 70 C-66.74244431 69.41679993 -66.48488861 68.83359985 -66.2195282 68.23272705 C-64.89414842 65.80620565 -63.45160702 64.21724072 -61.48754883 62.27636719 C-60.76952591 61.56172302 -60.05150299 60.84707886 -59.3117218 60.11077881 C-58.53467392 59.34719055 -57.75762604 58.58360229 -56.95703125 57.796875 C-56.1552092 57.00025452 -55.35338715 56.20363403 -54.52726746 55.38287354 C-51.96037582 52.8337925 -49.38692442 50.2914714 -46.8125 47.75 C-44.25675608 45.22200181 -41.7025261 42.69252167 -39.15129089 40.15997314 C-37.5646798 38.58547555 -35.97540406 37.01365686 -34.38301086 35.44500732 C-30.27011259 31.36871518 -26.35793235 27.19791187 -22.58082581 22.80914307 C-20.39634607 20.30916087 -18.0769671 17.9646878 -15.72265625 15.625 C-14.79775391 14.70332031 -13.87285156 13.78164063 -12.91992188 12.83203125 C-11.96750432 11.88796393 -11.01502969 10.94395418 -10.0625 10 C-9.0824469 9.02497614 -8.1026276 8.0497172 -7.12304688 7.07421875 C-4.75097687 4.71383382 -2.3765914 2.35583095 0 0 Z " fill="#FFFFFF" transform="translate(230,8)"/>
<path d="M0 0 C0.53625 0.556875 1.0725 1.11375 1.625 1.6875 C1.63917969 1.02363281 1.65335938 0.35976562 1.66796875 -0.32421875 C1.91565873 -4.9098305 2.10002245 -7.59794722 4.875 -11.375 C9.83437644 -14.86910613 15.16429322 -14.49487558 21.0625 -14.5 C22.16948242 -14.51836914 22.16948242 -14.51836914 23.29882812 -14.53710938 C27.79378327 -14.54909592 31.40852852 -14.06556156 35.625 -12.3125 C36.625 -11.3125 36.625 -11.3125 36.80302429 -8.37055969 C36.72822195 -3.59768996 35.7455832 0.95709727 34.77661133 5.61645508 C34.57981781 6.59008499 34.38302429 7.5637149 34.18026733 8.56684875 C33.52888482 11.78157295 32.86794226 14.99425371 32.20703125 18.20703125 C31.74755138 20.46631732 31.28871533 22.7257344 30.83049011 24.98527527 C29.62011796 30.94576594 28.40183577 36.90461165 27.18164062 42.86309814 C25.48039079 51.17776134 23.78981866 59.4946029 22.09806824 67.811203 C21.19924093 72.2296724 20.29753762 76.64753768 19.39326477 81.06489563 C19.1819778 82.10042918 18.97069082 83.13596273 18.75300121 84.20287609 C18.33482029 86.25013646 17.91454874 88.29697102 17.49207783 90.34335041 C16.3679741 95.8345067 15.32563635 101.33029145 14.37240601 106.85385132 C14.16241565 108.03783099 13.95242529 109.22181067 13.73607159 110.44166851 C13.33520844 112.71760143 12.95016395 114.99639647 12.58354664 117.2780962 C11.50563719 123.32415186 10.70985149 127.01523496 5.625 130.6875 C1.0450654 132.21414487 -3.51571028 131.8719271 -8.3125 131.875 C-9.31474609 131.88724609 -10.31699219 131.89949219 -11.34960938 131.91210938 C-12.79883789 131.91500977 -12.79883789 131.91500977 -14.27734375 131.91796875 C-15.15898193 131.92207764 -16.04062012 131.92618652 -16.94897461 131.93041992 C-19.52610768 131.67236946 -21.15611936 130.98815647 -23.375 129.6875 C-23.63904456 122.82234138 -22.63341946 116.42903283 -21.375 109.6875 C-22.17550781 110.64849609 -22.17550781 110.64849609 -22.9921875 111.62890625 C-33.66104012 124.01437357 -47.74984602 133.043254 -64.375 134.6875 C-76.57939953 135.59335961 -87.57914551 133.32324298 -97.375 125.6875 C-109.02060561 114.24620326 -111.52914163 98.71598021 -111.6875 83.125 C-111.64601339 73.05645257 -110.66753999 63.48884732 -108.375 53.6875 C-108.19227539 52.90197754 -108.00955078 52.11645508 -107.82128906 51.30712891 C-101.92435528 27.07547573 -89.96351881 4.22271009 -68.375 -9.3125 C-62.33226657 -12.6004579 -56.16743728 -15.1427652 -49.375 -16.3125 C-48.30958984 -16.51359375 -48.30958984 -16.51359375 -47.22265625 -16.71875 C-28.70836945 -19.42966055 -13.12030656 -12.77503534 0 0 Z M-54.94921875 24.84375 C-62.45668774 33.64477645 -66.61394598 44.57024016 -69.375 55.6875 C-69.58769531 56.51378906 -69.80039062 57.34007812 -70.01953125 58.19140625 C-72.81521745 70.39990641 -74.40571194 84.76506618 -68.5625 96.25 C-64.94788053 100.27771884 -62.2111344 101.86129832 -56.8125 102.25 C-47.01966609 101.90077561 -38.63144812 95.93854362 -31.7578125 89.36328125 C-20.99940346 77.282117 -15.4791846 62.87027696 -12 47.25 C-11.72800781 46.10595703 -11.45601562 44.96191406 -11.17578125 43.78320312 C-9.07265171 35.48651454 -9.07265171 35.48651454 -11.65234375 27.625 C-17.70216723 20.56450013 -25.20088268 16.1717445 -34.5625 15.4375 C-43.09800283 15.9972051 -48.75821584 18.91271144 -54.94921875 24.84375 Z " fill="#FFFFFF" transform="translate(693.375,175.3125)"/>
<path d="M0 0 C5.02658711 2.88563334 8.41434492 8.00670593 10.34765625 13.40625 C11.18115472 18.69465407 10.62591318 23.74607565 9.5859375 28.95678711 C9.34568848 30.17752426 9.10543945 31.39826141 8.85791016 32.6559906 C8.59291699 33.967304 8.32777689 35.27858772 8.0625 36.58984375 C7.79287594 37.94735888 7.5238422 39.30499137 7.25537109 40.66273499 C6.55104179 44.21649263 5.83876078 47.76861009 5.12475586 51.32043457 C4.39602643 54.95289239 3.67490611 58.58685949 2.953125 62.22070312 C1.53865104 69.33612578 0.1157648 76.44983124 -1.3125 83.5625 C-0.50095459 83.5718457 0.31059082 83.58119141 1.14672852 83.59082031 C4.84842047 83.6447323 8.5488772 83.72834199 12.25 83.8125 C13.52681641 83.82667969 14.80363281 83.84085937 16.11914062 83.85546875 C24.55737335 84.07464363 29.58801514 84.73484478 35.8671875 90.59765625 C36.42664062 91.26667969 36.98609375 91.93570313 37.5625 92.625 C38.13742187 93.29660156 38.71234375 93.96820313 39.3046875 94.66015625 C42.3829707 98.89496958 42.13075493 103.55288297 41.6875 108.5625 C39.95167374 114.5868382 36.87301201 118.2207256 31.6875 121.5625 C26.51411899 124.15666941 22.37991679 124.98268493 16.56640625 124.85546875 C15.82164536 124.85122391 15.07688446 124.84697906 14.30955505 124.84260559 C11.95598527 124.82595724 9.60330621 124.78833375 7.25 124.75 C5.64389267 124.73493515 4.03777177 124.72124991 2.43164062 124.70898438 C-1.48341047 124.67609952 -5.39780479 124.62441626 -9.3125 124.5625 C-9.4915387 125.48878204 -9.67057739 126.41506409 -9.8550415 127.36941528 C-11.54666939 136.11174423 -13.25262115 144.85117215 -14.97252274 153.58798409 C-15.85621922 158.07942965 -16.73489494 162.5717354 -17.60205078 167.06640625 C-18.43958116 171.40652178 -19.29035856 175.74384969 -20.15026093 180.07958603 C-20.47550237 181.73159833 -20.79601435 183.38454924 -21.11164093 185.03842545 C-21.55563663 187.36049655 -22.0165581 189.67861624 -22.48144531 191.99658203 C-22.60732529 192.67631577 -22.73320526 193.3560495 -22.86289978 194.05638123 C-24.39748672 201.50508566 -28.22474161 206.17931396 -34.3125 210.5625 C-39.98568215 213.09732607 -45.37233802 213.3399616 -51.3125 211.5625 C-56.19047242 209.56006385 -59.47885607 205.93550185 -62.3125 201.5625 C-66.51253623 191.03478487 -62.84103468 179.09008473 -60.58984375 168.38671875 C-60.19243736 166.44996025 -60.19243736 166.44996025 -59.78700256 164.47407532 C-59.0920747 161.08779809 -58.38767905 157.70356281 -57.68109131 154.31970215 C-56.95794276 150.84781099 -56.24404422 147.37401916 -55.52929688 143.90039062 C-54.13259518 137.11923721 -52.7258526 130.34020202 -51.3125 123.5625 C-52.38564453 123.5939209 -52.38564453 123.5939209 -53.48046875 123.62597656 C-56.75766652 123.70970833 -60.03463841 123.76134051 -63.3125 123.8125 C-64.43785156 123.84601563 -65.56320312 123.87953125 -66.72265625 123.9140625 C-74.68955047 124.00724255 -80.39084502 123.25734285 -86.40625 117.58984375 C-90.42111462 111.62330884 -91.52361914 106.69230574 -90.3125 99.5625 C-88.77309165 94.26009345 -86.09511936 90.49333257 -81.35498047 87.61132812 C-73.62696507 83.64293772 -64.68800324 84.32086625 -56.25 84.4375 C-54.37924805 84.45103516 -54.37924805 84.45103516 -52.47070312 84.46484375 C-49.41775417 84.48823799 -46.36526688 84.52279911 -43.3125 84.5625 C-43.19626785 83.70577698 -43.08003571 82.84905396 -42.96028137 81.96636963 C-41.81247679 73.69675481 -40.45598955 65.49630482 -38.88671875 57.296875 C-38.65725052 56.09742249 -38.42778229 54.89796997 -38.19136047 53.66217041 C-37.70853251 51.15100292 -37.22358207 48.64024264 -36.73657227 46.12988281 C-36.24438306 43.57904739 -35.758733 41.02694177 -35.27954102 38.47363281 C-34.57966962 34.74512709 -33.86037136 31.02082921 -33.13671875 27.296875 C-32.92818771 26.16747498 -32.71965668 25.03807495 -32.50480652 23.87445068 C-30.86373956 15.60572539 -28.78643106 6.74643216 -21.6875 1.5 C-15.06293773 -2.30298945 -7.15860685 -3.04033495 0 0 Z " fill="#FFFFFF" transform="translate(1054.3125,97.4375)"/>
<path d="M0 0 C1.19302734 -0.01224609 2.38605469 -0.02449219 3.61523438 -0.03710938 C5.33516602 -0.04000977 5.33516602 -0.04000977 7.08984375 -0.04296875 C8.13906006 -0.04707764 9.18827637 -0.05118652 10.26928711 -0.05541992 C13.17919677 0.19764888 14.6481841 0.58337523 17.0625 2.1875 C17.80809021 4.08964539 17.80809021 4.08964539 18.16577148 6.5690918 C18.31319794 7.5629892 18.46062439 8.5568866 18.61251831 9.5809021 C18.76101227 10.77107941 18.90950623 11.96125671 19.0625 13.1875 C19.1495583 13.87368534 19.23661659 14.55987068 19.32631302 15.26684952 C20.07225762 21.19951761 20.7427881 27.14010666 21.41015625 33.08203125 C21.62873972 35.00253892 21.84769448 36.92300437 22.06700134 38.84342957 C22.64018139 43.86959296 23.20925489 48.89621188 23.77716064 53.92297363 C24.68849029 61.98469899 25.60540814 70.04578854 26.52367973 78.10672569 C26.84262403 80.91275838 27.15937117 83.71903264 27.47584534 86.52534485 C27.67141432 88.24843052 27.86704401 89.9715093 28.06274414 91.69458008 C28.19289917 92.85657173 28.19289917 92.85657173 28.32568359 94.04203796 C28.79021803 98.11461981 29.34731681 102.15124084 30.0625 106.1875 C44.12492258 83.13174955 56.08385929 60.1528849 64.73828125 34.49609375 C65.05069763 33.57006348 65.36311401 32.6440332 65.68499756 31.68994141 C67.24681921 27.03865927 68.78341465 22.38040026 70.29150391 17.71142578 C70.85966952 15.98599239 71.42786478 14.26056877 71.99609375 12.53515625 C72.24676102 11.73629501 72.49742828 10.93743378 72.75569153 10.11436462 C74.11609371 6.01687858 75.03419697 3.28813068 79.0625 1.1875 C84.34082026 -0.57194009 89.97604505 0.00286067 95.5 0 C96.74072266 -0.01224609 97.98144531 -0.02449219 99.25976562 -0.03710938 C101.04737305 -0.04000977 101.04737305 -0.04000977 102.87109375 -0.04296875 C103.96220459 -0.04707764 105.05331543 -0.05118652 106.17749023 -0.05541992 C109.0140908 0.18342391 110.65781761 0.71819429 113.0625 2.1875 C113.4966634 8.45307374 111.99244804 13.32233356 109.875 19.1875 C109.52405273 20.17371338 109.17310547 21.15992676 108.81152344 22.17602539 C95.78319784 58.06469753 79.288035 93.08408137 57.30859375 124.40478516 C56.42479369 125.66918721 55.55075571 126.94043821 54.68359375 128.21630859 C53.2646942 130.30261287 51.82319615 132.37145322 50.375 134.4375 C49.94743408 135.07051025 49.51986816 135.70352051 49.0793457 136.35571289 C45.25927924 141.68863364 41.17507392 143.56209316 34.69921875 144.86328125 C5.50442593 147.46603936 5.50442593 147.46603936 -1.51761341 141.94518661 C-3.31909189 139.71512498 -3.53040011 138.16779422 -3.90568542 135.33404541 C-4.11381111 133.83320656 -4.11381111 133.83320656 -4.32614136 132.30204773 C-4.46496735 131.20495987 -4.60379333 130.10787201 -4.74682617 128.97753906 C-4.90332138 127.82101334 -5.05981659 126.66448761 -5.22105408 125.47291565 C-5.73692652 121.63456241 -6.23411225 117.79404705 -6.73046875 113.953125 C-7.08285032 111.28022383 -7.43848364 108.60775709 -7.79377747 105.9352417 C-8.53808868 100.32077235 -9.27201261 94.70501826 -9.99975586 89.08837891 C-10.83669467 82.62990745 -11.68941988 76.17367606 -12.55099887 69.71844888 C-13.38291872 63.48277421 -14.2036516 57.2456747 -15.01940346 51.00786591 C-15.36477436 48.36823476 -15.71439608 45.72927397 -16.06606102 43.09046173 C-20.88316045 6.81947894 -20.88316045 6.81947894 -17.60002136 2.37823486 C-12.63739017 -1.17611223 -5.80784142 0.00312754 0 0 Z " fill="#FFFFFF" transform="translate(770.9375,161.8125)"/>
<path d="M0 0 C0.69480469 -0.020625 1.38960937 -0.04125 2.10546875 -0.0625 C6.88051809 -0.09847024 10.05214573 0.78386806 14.125 3.25 C15.125 4.25 15.125 4.25 15.296875 8.2421875 C15.23899038 13.11800216 14.46448404 17.6349314 13.375 22.375 C13.21773437 23.13425781 13.06046875 23.89351562 12.8984375 24.67578125 C11.74547057 29.82865655 10.10600886 33.86950988 7.125 38.25 C3.27655503 39.53281499 1.3939692 38.66848194 -2.5 37.625 C-8.93746488 36.21060833 -13.1847578 35.72598844 -18.875 39.25 C-36.31285495 52.06148527 -43.68959285 71.0976989 -47.515625 91.58203125 C-47.81038268 93.07693602 -48.10711736 94.57145217 -48.40570068 96.06559753 C-49.17603971 99.93951452 -49.92664675 103.81693318 -50.6706543 107.69598389 C-51.87097634 113.94801058 -53.09198427 120.19581625 -54.33238983 126.44000816 C-54.75866124 128.60909604 -55.16998287 130.78065086 -55.58013916 132.95283508 C-55.83962167 134.27571978 -56.09966167 135.59849528 -56.36035156 136.92114258 C-56.6917514 138.65077995 -56.6917514 138.65077995 -57.02984619 140.4153595 C-57.89309094 143.31067689 -58.49976213 144.45616038 -60.875 146.25 C-66.49666092 148.92273895 -72.34875893 148.54598168 -78.4375 148.5 C-79.46552734 148.50773438 -80.49355469 148.51546875 -81.55273438 148.5234375 C-82.54724609 148.52085937 -83.54175781 148.51828125 -84.56640625 148.515625 C-85.46560791 148.51336914 -86.36480957 148.51111328 -87.29125977 148.50878906 C-90.40937603 148.19647656 -93.58969898 147.53530102 -95.875 145.25 C-96.35342644 138.65698804 -94.91965207 132.44151348 -93.62768555 126 C-93.38866516 124.78127197 -93.14964478 123.56254395 -92.90338135 122.30688477 C-92.24916255 118.97944654 -91.58897602 115.6533084 -90.92556739 112.32769775 C-90.37129128 109.54499384 -89.82123687 106.76146243 -89.27118713 103.97792053 C-87.97298979 97.4085626 -86.66803951 90.84057163 -85.35864258 84.2734375 C-84.01051274 77.51152461 -82.67286475 70.74759975 -81.34052628 63.9825592 C-80.19372351 58.16126771 -79.04086612 52.34119833 -77.88308936 46.52207947 C-77.19277348 43.05231018 -76.50461101 39.58215131 -75.82208824 36.11083984 C-75.06039838 32.23877918 -74.28604816 28.36930956 -73.51049805 24.5 C-73.28751541 23.35797119 -73.06453278 22.21594238 -72.83479309 21.03930664 C-69.91424598 6.60949732 -69.91424598 6.60949732 -64.875 3.25 C-60.63871232 2.07409096 -56.36862719 2.03266263 -52 2 C-50.97712891 1.9690625 -50.97712891 1.9690625 -49.93359375 1.9375 C-44.86910894 1.89891345 -41.41148922 2.99952232 -36.875 5.25 C-37.42381057 11.60219042 -38.04011613 17.92873638 -38.875 24.25 C-38.3903125 23.60933594 -37.905625 22.96867187 -37.40625 22.30859375 C-27.60523298 9.66151217 -16.5988776 0.12182662 0 0 Z " fill="#FFFFFF" transform="translate(566.875,158.75)"/>
<path d="M0 0 C5.28449966 2.76073637 9.92177587 7.69892136 11.8046875 13.34765625 C12.34963747 21.95285877 11.44614169 30.01418992 9.69677734 38.42089844 C9.36010544 40.11381264 9.36010544 40.11381264 9.01663208 41.84092712 C8.27939799 45.52824254 7.52353335 49.21141405 6.765625 52.89453125 C6.24137646 55.4774506 5.71767334 58.0604807 5.19448853 60.64361572 C4.09947356 66.03835196 2.99284286 71.4306165 1.88037109 76.82177734 C0.59945551 83.03055213 -0.65723981 89.2438882 -1.90239871 95.45992351 C-3.10841336 101.4751892 -4.33673743 107.48568876 -5.57368088 113.49466705 C-6.09421723 116.0369892 -6.60848358 118.5806038 -7.11623001 121.12551117 C-7.82878883 124.68523126 -8.5666845 128.23880335 -9.31103516 131.79199219 C-9.51388123 132.83324753 -9.71672729 133.87450287 -9.92572021 134.9473114 C-11.57371502 142.6157263 -14.40340856 149.30328187 -20.65234375 154.3203125 C-27.36595818 157.42661171 -32.64458046 158.89408765 -39.8046875 156.4609375 C-45.76933489 153.80508119 -48.95442704 150.99306964 -52.1953125 145.34765625 C-55.06770391 136.73048202 -52.86485495 126.9916737 -51.03979492 118.34033203 C-50.81052811 117.20704971 -50.58126129 116.0737674 -50.345047 114.90614319 C-49.59190636 111.19926881 -48.82185614 107.49615054 -48.05078125 103.79296875 C-47.51909417 101.2014822 -46.98817404 98.60984854 -46.45808411 96.01803589 C-45.34902815 90.60502673 -44.23055778 85.19403005 -43.10620117 79.78417969 C-41.809103 73.54266007 -40.52650897 67.29829404 -39.2516796 61.0521909 C-38.01983137 55.0181301 -36.77828735 48.98611141 -35.53231239 42.95495224 C-35.00492758 40.39817703 -34.47987366 37.84091986 -33.95720482 35.28317642 C-33.22613667 31.71320272 -32.48410295 28.14568322 -31.73901367 24.57861328 C-31.52538177 23.52500107 -31.31174988 22.47138885 -31.09164429 21.385849 C-29.67844259 14.69673574 -28.29366513 8.58551896 -22.7578125 4.09765625 C-21.89349609 3.37835938 -21.89349609 3.37835938 -21.01171875 2.64453125 C-14.88609285 -1.72903391 -7.20832585 -2.14197583 0 0 Z " fill="#FFFFFF" transform="translate(1146.1953125,155.65234375)"/>
<path d="M0 0 C5.28449966 2.76073637 9.92177587 7.69892136 11.8046875 13.34765625 C12.93416499 24.82442707 10.20871466 35.75594233 7.82421875 46.8984375 C7.40907907 48.88478854 6.99509549 50.87138152 6.5821991 52.85820007 C5.49570871 58.07094192 4.39380146 63.28030396 3.28845215 68.48907471 C2.18240457 73.71408854 1.09071524 78.94209682 -0.00195312 84.16992188 C-1.26412653 90.20527315 -2.52888783 96.24002537 -3.80709839 102.27200317 C-5.50507804 110.28518886 -7.20138427 118.2965488 -8.78369141 126.33349609 C-9.006241 127.45241745 -9.22879059 128.57133881 -9.45808411 129.72416687 C-9.83713328 131.64397314 -10.20752711 133.56552732 -10.5657196 135.48933411 C-11.81585099 141.78458716 -13.59716154 147.93704788 -18.4140625 152.40625 C-19.166875 152.86128906 -19.9196875 153.31632813 -20.6953125 153.78515625 C-21.82453125 154.49478516 -21.82453125 154.49478516 -22.9765625 155.21875 C-28.32207544 157.93856204 -34.02121039 158.35180892 -39.7265625 156.546875 C-46.2989685 153.66649828 -50.49963106 150.06645668 -53.1953125 143.34765625 C-54.09854978 134.81789067 -52.80234413 126.55298536 -51.03979492 118.22680664 C-50.81052811 117.0933783 -50.58126129 115.95994995 -50.345047 114.79217529 C-49.59282847 111.09052941 -48.82234467 107.39297032 -48.05078125 103.6953125 C-47.51900851 101.10527668 -46.98812383 98.51505839 -46.45808411 95.92466736 C-45.3496629 90.51749769 -44.23114749 85.11249456 -43.10620117 79.70874023 C-41.80851515 73.47470361 -40.52600032 67.23769388 -39.2516796 60.9988423 C-38.01989416 54.96957016 -36.77837667 48.94235065 -35.53231239 42.91601372 C-35.00498292 40.36201869 -34.47992896 37.80755273 -33.95720482 35.25261116 C-33.22617306 31.68752554 -32.48414377 28.12490598 -31.73901367 24.56274414 C-31.52538177 23.51070297 -31.31174988 22.4586618 -31.09164429 21.3747406 C-29.67730997 14.69018527 -28.2899286 8.58248979 -22.7578125 4.09765625 C-21.89349609 3.37835938 -21.89349609 3.37835938 -21.01171875 2.64453125 C-14.88609285 -1.72903391 -7.20832585 -2.14197583 0 0 Z " fill="#FFFFFF" transform="translate(937.1953125,152.65234375)"/>
<path d="M0 0 C4.83971551 4.21339939 8.09134006 8.52579792 9 15 C9.18289494 21.73053373 7.42346786 26.90026262 3 32 C-1.31193635 36.19980562 -5.47577715 37.37445738 -11.4375 37.6875 C-18.00112247 37.4133812 -22.30992509 35.58877739 -27 31 C-30.60411031 26.69313838 -32.24966918 21.60715372 -32 16 C-30.84232276 9.55485457 -28.06611463 4.21035202 -23 0 C-15.6580196 -4.19328555 -7.31656528 -4.30386193 0 0 Z " fill="#FFFFFF" transform="translate(951,98)"/>
<path d="M0 0 C4.83971551 4.21339939 8.09134006 8.52579792 9 15 C9.18289494 21.73053373 7.42346786 26.90026262 3 32 C-1.31193635 36.19980562 -5.47577715 37.37445738 -11.4375 37.6875 C-18.00112247 37.4133812 -22.30992509 35.58877739 -27 31 C-30.60411031 26.69313838 -32.24966918 21.60715372 -32 16 C-30.84232276 9.55485457 -28.06611463 4.21035202 -23 0 C-15.6580196 -4.19328555 -7.31656528 -4.30386193 0 0 Z " fill="#FFFFFF" transform="translate(1160,101)"/>
<path d="M0 0 C5.29280672 4.45076929 8.57612837 8.38665741 9.75 15.3125 C9.92564003 21.03629874 8.73377806 25.78608662 5.4609375 30.515625 C1.33296758 34.85093588 -4.39156339 37.50914885 -10.375 37.875 C-17.65066941 36.81885444 -22.5469931 33.90452252 -27.05859375 28.08984375 C-30.44791257 23.03364683 -30.55027737 18.57295984 -29.78515625 12.70703125 C-28.41811305 6.59026133 -24.20897453 2.81295261 -19.25 -0.6875 C-12.5725392 -3.45927618 -6.38581473 -3.31571149 0 0 Z " fill="#FFFFFF" transform="translate(1180.25,274.6875)"/>
</svg>
